HIERARCHY
ROOT Hips
{
  OFFSET -320.828 86.2331 294.766
  CHANNELS 6 Xposition Yposition Zposition Zrotation Xrotation Yrotation
  JOINT ToSpine
  {
    OFFSET -0.0105055 1.38907 -7.13956
    CHANNELS 3 Zrotation Xrotation Yrotation
    JOINT Spine
    {
      OFFSET 0.0105055 10 1
      CHANNELS 3 Zrotation Xrotation Yrotation
      JOINT Spine1
      {
        OFFSET 0 12 1.60637
        CHANNELS 3 Zrotation Xrotation Yrotation
        JOINT Neck
        {
          OFFSET 0 27 2.26658
          CHANNELS 3 Zrotation Xrotation Yrotation
          JOINT Head
          {
            OFFSET 0 9 2.12705
            CHANNELS 3 Zrotation Xrotation Yrotation
            End Site
            {
              OFFSET 0 11 2
            }
          }
        }
        JOINT LeftShoulder
        {
          OFFSET 8 19.6109 2.86452
          CHANNELS 3 Zrotation Xrotation Yrotation
          JOINT LeftArm
          {
            OFFSET 12 1 0.681055
            CHANNELS 3 Zrotation Xrotation Yrotation
            JOINT LeftForeArm
            {
              OFFSET 19 0 -1.52608
              CHANNELS 3 Zrotation Xrotation Yrotation
              JOINT LeftHand
              {
                OFFSET 23 0 0
                CHANNELS 3 Zrotation Xrotation Yrotation
                End Site
                {
                  OFFSET 10 0 0
                }
              }
            }
          }
        }
        JOINT RightShoulder
        {
          OFFSET -8 19.6109 2.86452
          CHANNELS 3 Zrotation Xrotation Yrotation
          JOINT RightArm
          {
            OFFSET -12 1 0.681055
            CHANNELS 3 Zrotation Xrotation Yrotation
            JOINT RightForeArm
            {
              OFFSET -19 0 -1.52608
              CHANNELS 3 Zrotation Xrotation Yrotation
              JOINT RightHand
              {
                OFFSET -23 0 0
                CHANNELS 3 Zrotation Xrotation Yrotation
                End Site
                {
                  OFFSET -10 0 0
                }
              }
            }
          }
        }
      }
    }
  }
  JOINT LeftUpLeg
  {
    OFFSET 9 -7.17245 0
    CHANNELS 3 Zrotation Xrotation Yrotation
    JOINT LeftLeg
    {
      OFFSET 0 -44.1113 0
      CHANNELS 3 Zrotation Xrotation Yrotation
      JOINT LeftFoot
      {
        OFFSET 0 -36.1829 0
        CHANNELS 3 Zrotation Xrotation Yrotation
        JOINT LeftToeBase
        {
          OFFSET 0 -4.84184 13
          CHANNELS 3 Zrotation Xrotation Yrotation
          End Site
          {
            OFFSET 0 1 6
          }
        }
      }
    }
  }
  JOINT RightUpLeg
  {
    OFFSET -9 -7.17245 0
    CHANNELS 3 Zrotation Xrotation Yrotation
    JOINT RightLeg
    {
      OFFSET 0 -44.0551 0
      CHANNELS 3 Zrotation Xrotation Yrotation
      JOINT RightFoot
      {
        OFFSET 0 -36.1469 0
        CHANNELS 3 Zrotation Xrotation Yrotation
        JOINT RightToeBase
        {
          OFFSET 0 -4.92256 13
          CHANNELS 3 Zrotation Xrotation Yrotation
          End Site
          {
            OFFSET 0 1 6
          }
        }
      }
    }
  }
}
MOTION
Frames:	21
Frame Time:	0.0333333
-320.24 86.4765 294.293 5.9618 -3.25379 126.143 0 0 0 5.547 -5.44662 1.07012 1.75295 15.8751 0.629656 16.2323 1.80262 -0.619007 -4.10763 -1.49228 5.34505 -28.7221 3.65774 -6.97959 -33.5118 5.65333 -40.0702 0.607212 -0.597821 -17.8785 -7.72992 0.306989 -4.53999 28.4493 5.71114 12.9312 47.7849 5.29472 -12.5874 2.47526 -4.82152 9.81949 3.00647 0.00414593 0.0481 -0.775138 25.506 9.7036 -1.49733 11.533 -3.27027 10.7195 -28.3219 2.71915 1.6235 -6.38519 -6.51716 15.0944 -26.99 9.29446 0.802184 12.9433 1.25729 -15.0784 -1.86082 -0.212686 4.45714 -17.1024 -5.53994 
-317.7 87.4513 292.25 5.97288 -1.92581 131.465 0 0 0 1.06125 -2.03166 -0.966024 6.00728 12.0664 -2.78383 14.87 1.33012 -0.0968763 -3.3415 -1.26184 5.21231 -29.297 3.69746 -6.9277 -34.0386 6.61352 -40.0734 0.668415 -0.377696 -16.9757 -7.80145 0.327485 -4.79874 28.0474 5.53698 12.6183 48.1431 4.32438 -12.8637 2.51296 -5.29651 7.2094 2.56964 -0.0546022 -2.36114 1.3205 30.3711 12.0148 -2.61006 4.9872 -12.1102 9.13778 -21.6387 1.75128 1.74142 -7.96787 -6.97161 11.8051 -26.4395 6.61463 1.53305 14.3635 -1.12659 -17.5896 5.35201 0.814399 4.87823 -19.2764 -7.37087 
-314.466 88.289 289.54 6.11633 -2.00209 138.596 0 0 0 -2.12696 1.32678 -3.95142 10.9427 7.11659 -6.82688 12.4773 1.74153 0.440066 -2.79278 -0.824471 4.928 -30.8929 3.70433 -6.50067 -33.6696 9.80364 -38.1279 0.350602 -0.702709 -15.8373 -7.7822 0.31276 -4.60472 27.4386 5.60352 13.0946 48.5188 2.99387 -14.1987 2.34732 -5.23381 4.64832 2.9253 -0.0317063 -1.36973 6.49354 28.4991 12.4862 -1.32133 10.7105 -20.4475 7.22618 -16.9733 1.0764 1.83671 -13.9467 -8.21073 8.939 -26.4605 2.19705 2.44895 16.3823 -4.03178 -18.3892 10.8304 1.75727 5.3113 -22.3499 -9.86167 
-310.891 88.7377 286.16 6.48573 -2.36773 139.566 0 0 0 -1.80981 1.4901 -4.13865 11.8088 5.19888 -7.09548 11.2905 3.14948 0.100949 -3.3287 -0.151643 4.49467 -31.5592 3.7793 -6.52674 -33.9827 14.1979 -35.1768 -0.310645 -0.933183 -13.6036 -8.86944 0.317639 -4.08962 26.8833 5.67184 13.5619 48.9973 1.35457 -15.7182 2.20511 -6.96435 2.99396 4.08405 0.00711605 0.26209 8.06151 25.7951 11.1779 0.338685 19.4761 -20.6828 6.56674 -9.74705 0.55946 1.85425 -24.3966 -6.19502 9.17937 -25.9576 -1.85566 1.94387 21.559 -1.95318 -19.4833 10.6596 1.83774 4.74663 -19.0866 -8.75453 
-307.506 89.3459 282.866 7.18805 -1.38907 139.507 0 0 0 -0.504355 2.3085 -3.60592 9.90119 4.97309 -6.22861 12.0465 2.60064 -0.57041 -4.22012 0.798256 4.24329 -29.8507 3.79409 -7.03494 -35.8864 17.7755 -33.3128 -1.2629 0.321082 -9.8102 -10.0309 0.351227 -4.00371 27.3297 5.5475 12.9795 49.5719 0.808338 -15.026 2.10041 -7.4649 2.60799 4.37426 -0.0199472 -0.545609 8.74647 22.9313 8.45014 0.582594 30.1484 -18.5254 5.81044 -3.70481 0.188644 2.10164 -18.2426 -11.0534 9.09312 -24.0806 -6.15169 0.136383 27.1187 2.34699 -18.8324 6.68179 1.1065 4.20221 -16.3689 -9.4901 
-304.249 90.0986 279.947 7.76992 0.0124143 139.672 0 0 0 0.357537 3.95165 -3.09947 7.68501 4.47588 -5.35404 12.3608 2.0956 -0.991296 -4.39599 0.406441 3.90664 -28.9188 3.76174 -7.21716 -37.2968 19.9515 -32.1587 -2.98433 0.983695 -4.70812 -10.066 0.324419 -3.66671 28.2287 5.74484 13.1308 49.827 1.42859 -14.2769 2.24879 -7.24131 4.73239 3.84095 -0.038971 -1.14842 9.81088 17.6019 6.51877 -0.135967 42.8963 -18.5773 4.84251 4.82193 -0.198472 2.45426 -8.10567 -11.3442 8.80041 -20.4469 -6.78359 -0.0275042 29.5497 1.88565 -19.5457 2.41257 0.412899 4.20166 -16.3478 -9.28386 
-301.467 90.7181 277.343 8.5142 -0.397226 139.698 0 0 0 3.21669 4.50587 -2.6549 5.14296 4.14818 -4.36336 11.9627 2.12637 -1.22083 -4.35094 0.0552492 3.53618 -29.2741 3.74785 -7.07363 -38.1142 21.1776 -30.0647 -4.68313 -0.925075 -0.729598 -8.53181 0.211163 -2.83329 28.2409 5.82192 13.3453 49.9983 3.11516 -12.2397 2.54172 -6.77517 6.51654 4.14629 -0.0186022 -0.5404 12.0984 10.2081 7.09678 0.107202 54.1682 -19.558 4.45644 8.06228 -0.2912 1.79003 -10.5677 -7.35451 9.93265 -17.0432 -7.37323 -0.00825596 28.7486 2.05527 -20.3308 0.0316281 0.0126958 4.2857 -16.8031 -9.38004 
-299.275 91.3312 275.014 8.49938 -0.57605 140.962 0 0 0 4.75568 4.5887 -2.62167 3.89191 4.49763 -3.85996 12.0013 2.8424 -2.3223 -4.45679 -0.670212 2.52973 -29.9648 3.7708 -6.93878 -39.8469 19.7194 -27.0933 -5.18249 -1.32575 2.6989 -8.10559 0.179952 -2.53265 28.1466 5.86427 13.5113 49.3939 4.8424 -9.57876 2.53504 -5.46436 8.5492 4.37102 0.0568949 1.50924 12.3749 1.88938 5.89625 0.0447127 62.7289 -16.1764 8.2056 0.443132 -0.0367163 2.09035 -6.49343 -8.89758 9.91629 -14.298 -8.3839 0.0366293 27.5449 1.6278 -19.5182 -2.33338 -0.405891 4.24413 -16.5628 -9.17937 
-297.108 91.9351 273.015 7.51897 -0.663722 141.678 0 0 0 4.6104 5.65966 -2.13272 3.27021 3.30385 -2.99213 12.2626 3.37107 -3.12681 -4.52204 -1.09831 1.86941 -30.5823 3.73641 -6.6721 -41.6818 16.9729 -22.7326 -4.63689 -3.53766 3.85926 -8.85104 0.272204 -3.52809 28.3617 5.97966 13.7363 47.9373 6.45218 -6.76105 2.58006 -5.31294 10.9868 4.0756 0.090891 2.55086 11.2426 -7.17257 5.37732 -0.0616186 67.77 -11.6301 10.5874 -5.86678 0.545206 1.42085 -3.22723 -5.75344 9.6309 -12.0886 -7.67631 0.463554 25.6342 -0.36906 -20.6979 -3.66187 -0.667675 4.41689 -17.3481 -8.55206 
-294.878 92.7048 270.701 6.53818 -0.297391 140.582 0 0 0 4.9986 6.78519 -0.945807 1.51577 2.38396 -1.19778 12.5493 4.559 -4.00152 -4.16898 -1.87541 1.10719 -30.7939 3.66526 -6.42273 -42.8108 15.0461 -17.0721 -3.71104 -5.13157 1.6297 -9.63748 0.227494 -2.67445 28.3368 6.06356 13.9788 46.4172 8.46819 -3.86563 2.28906 -4.35842 13.6803 3.34111 0.0855454 2.90191 9.33586 -13.89 6.03224 -0.0482037 67.3613 -7.43843 12.5219 -9.96827 1.0892 1.17628 -3.70318 -4.53325 9.07195 -8.8193 -4.55898 1.41626 23.0013 -2.24728 -20.7428 -4.05776 -0.746117 4.60557 -18.6568 -10.0868 
-292.426 93.3273 268.175 6.0794 -0.0677073 139.787 0 0 0 5.5854 7.28322 0.345547 0.29726 2.38832 0.499067 12.3135 5.4204 -4.79464 -3.2972 -2.48189 0.120914 -30.8837 3.68648 -6.45626 -43.0937 14.4301 -12.2206 -3.16621 -8.97603 -0.808465 -9.41603 0.150327 -1.7326 26.649 5.57069 13.3801 45.8574 9.39206 -0.0851731 1.8919 -3.78226 15.4932 1.36934 0.0357431 3.29138 8.00743 -19.4226 6.24101 -0.0109727 62.9712 -4.45464 12.4761 -10.892 1.19343 0.699722 -4.54338 -1.99692 8.86383 -4.83366 -2.33768 1.78441 19.7947 -3.85554 -19.6416 -5.49186 -0.934735 4.57176 -18.3054 -10.4596 
-289.777 93.6045 265.173 6.16847 0.432349 139.015 0 0 0 7.97302 8.39143 0.826318 -3.10047 1.74448 1.87816 12.7399 6.85841 -5.45467 -2.6077 -3.31087 -0.416704 -30.3041 3.62444 -6.44234 -43.3239 11.2546 -7.24631 -2.6848 -10.4338 -1.84794 -10.8897 0.378516 -4.00052 27.0933 5.91953 14.1869 43.4055 9.99245 2.32667 1.50413 -3.46292 17.5218 -0.095191 -0.00435146 3.78687 6.81461 -22.8349 6.23155 0.00778306 55.6617 -2.50078 11.2978 -11.6157 1.15335 0.618515 -1.84294 -2.23127 8.61725 -0.0380276 -2.35668 1.30569 17.145 -3.77169 -16.5115 -9.3166 -1.36307 3.44159 -12.6493 -5.73436 
-287.248 93.332 262.162 5.76488 0.449621 137.742 0 0 0 9.888 8.90198 1.66958 -5.53744 1.66925 3.32318 11.7486 6.22338 -5.39192 -1.53874 -3.19046 -0.970112 -30.8924 3.52187 -6.01554 -41.6383 11.0477 -2.91453 -2.51178 -11.2234 -5.49225 -10.7106 0.20052 -2.14356 27.2644 6.27413 15.1445 40.0297 10.173 5.19487 1.39597 -3.74728 19.3314 0.45162 0.00647385 1.33378 5.66173 -25.7474 6.61111 -0.0666417 45.7377 -1.03578 10.1771 -10.9886 0.971471 0.716404 -1.32929 -2.62517 7.98049 2.81642 -3.72125 1.00552 16.8185 -1.65605 -16.2677 -12.1527 -1.74498 3.44099 -12.565 -5.51503 
-284.418 92.4684 258.781 5.501 -0.24165 136.611 0 0 0 12.1634 8.22618 2.3984 -7.25863 1.94643 4.35333 9.99744 5.5826 -4.95632 -0.414995 -3.05617 -1.42083 -32.1016 3.4202 -5.44522 -39.5347 9.68025 1.36828 -2.40852 -11.7302 -7.69184 -10.364 0.25329 -2.79079 26.2671 6.21478 15.5089 37.1842 11.1337 8.83927 1.26945 -3.35035 20.3721 0.130507 -8.78069e-005 0.603764 5.17481 -27.3958 7.52317 0.204057 33.1188 -1.20244 11.9396 -7.03654 0.74523 1.38348 -6.18161 -5.33247 7.75413 4.99301 -5.0559 0.95226 17.6742 0.972644 -16.3029 -15.5929 -2.24459 3.36364 -12.1733 -6.078 
-281.333 91.4245 255.284 5.87555 -0.549697 135.7 0 0 0 14.1995 8.25507 3.24211 -8.82376 1.48617 5.43668 9.51028 6.72824 -5.28604 -0.103196 -4.39774 -1.90985 -32.0582 3.53193 -5.74965 -38.5929 7.17326 5.11177 -2.11013 -11.8611 -8.08471 -10.1966 0.206705 -2.31362 25.6875 6.34001 16.2191 34.2836 10.8874 11.2356 0.877662 -2.37576 21.2303 0.61546 0.00787508 0.30485 5.25995 -27.3986 8.24098 -0.749689 20.5842 -4.64075 12.5897 -3.23885 0.341535 1.04454 -8.00959 -2.98496 7.86719 8.59534 -6.14256 0.892828 17.4614 2.93956 -16.4611 -18.3856 -2.68541 3.43272 -12.4513 -6.72649 
-278.089 90.2549 251.656 6.17314 -0.427815 134.847 0 0 0 15.4638 7.84862 3.82318 -9.79496 2.27113 6.1713 7.8827 6.0124 -5.09772 0.528064 -4.23191 -2.45103 -32.9523 3.39467 -5.18781 -36.4945 5.12019 7.4311 -2.07057 -13.1599 -7.72503 -10.0109 0.135664 -1.552 24.8272 6.26568 16.4882 30.8205 11.4434 15.4191 0.515287 -1.40287 20.305 3.66312 0.0182147 1.17637 5.32558 -26.9303 5.48725 -2.74998 10.1812 -3.96888 11.9165 -0.0545574 -0.0294665 1.11473 -8.12568 -3.25769 7.48244 13.0615 -7.50821 1.0999 16.3892 4.67109 -18.0022 -20.5521 -3.28858 3.58914 -13.1998 -6.57482 
-274.768 88.9012 247.98 6.17701 -0.363621 133.655 0 0 0 16.091 6.11463 4.88196 -10.2732 5.04276 7.33811 6.4772 2.96724 -4.78628 1.13113 -2.3817 -2.89556 -33.456 3.25961 -4.73322 -34.8784 4.11568 7.64232 -2.01329 -14.7122 -5.78086 -10.176 0.0893783 -1.00298 23.3441 5.77289 15.8214 29.0094 8.94823 19.2546 -2.46726 5.87105 21.2686 7.95083 -0.0362672 -0.606579 5.06457 -27.2366 5.28475 -2.20926 6.51328 -2.72633 1.38181 -2.90087 0.0633866 0.425882 -1.10992 -1.60717 6.78078 17.1692 -8.67162 1.03472 15.6215 6.54433 -19.6138 -22.6751 -3.96514 3.74427 -13.8962 -6.30555 
-271.571 88.0267 244.492 5.72712 0.0497325 131.905 0 0 0 16.8285 6.49894 5.59362 -12.8011 5.21301 8.82362 7.12011 1.25119 -5.01898 1.0219 -0.776131 -2.9794 -32.3454 3.08275 -4.51576 -34.816 3.64583 8.38873 -1.65734 -14.3315 -3.25818 -10.1062 0.0567183 -0.641215 23.5438 5.72681 15.5267 28.2151 8.59393 21.083 -1.76182 4.11275 21.0191 5.83505 0.00432133 0.0848224 4.66033 -27.3224 5.75048 -2.79074 7.29144 -0.287483 2.55443 -1.83686 -0.0649912 0.627498 -1.00769 -2.42308 5.11036 21.0718 -9.8362 1.28454 13.9693 8.88198 -22.5779 -21.3057 -4.30268 4.6353 -18.1187 -6.78007 
-268.335 88.4463 240.997 4.41044 1.35029 130.63 0 0 0 14.9705 4.12994 6.3592 -13.3621 9.65599 10.1381 6.63088 -2.47921 -4.87311 1.03966 1.30241 -3.16777 -32.3085 3.00773 -4.33223 -34.9721 2.72414 7.28932 -1.20754 -13.7499 -0.61309 -10.0129 0.0367437 -0.420673 22.0321 5.30738 15.0168 29.4563 7.01261 23.6088 -1.71023 3.89592 20.8296 4.82497 0.0243662 0.553258 2.78529 -27.0322 5.07407 -3.57743 10.4307 0.594707 7.50796 6.18234 -0.351706 0.876668 -8.1549 -1.91115 2.16431 24.4187 -11.1293 0.992354 12.1393 11.9852 -18.9989 -17.7577 -3.02307 5.50909 -21.466 -4.8859 
-264.901 89.2977 237.343 2.62634 2.41448 129.788 0 0 0 12.9008 4.86514 5.89667 -14.9216 6.79575 9.96465 8.12859 0.0330129 -4.57606 1.46703 0.494636 -2.41244 -32.71 2.89206 -3.97698 -34.6275 3.60923 10.4499 -1.51025 -15.6224 -0.476581 -10.0261 -0.000406185 0.0057073 24.5237 6.26921 16.7095 29.8734 7.12682 21.3154 -1.55293 3.46625 21.2418 4.67422 0.0503373 1.27765 0.866125 -27.7752 5.03979 -3.57032 15.012 0.506989 0.777106 7.58694 -0.0644963 0.397959 -3.82742 -0.738364 -0.483201 25.3548 -10.932 -0.427747 13.0844 12.9269 -14.957 -12.085 -1.53146 7.11463 -26.4343 -1.2888 
-261.28 89.8166 233.557 1.43521 3.45162 129.616 0 0 0 11.5232 2.67168 6.26195 -15.9319 8.17147 10.5127 10.4472 0.934716 -5.35829 0.769556 -0.104748 -2.26763 -29.7984 3.22387 -5.46452 -38.3864 2.574 9.75665 -1.02685 -15.1 1.29864 -9.95944 -0.0110038 0.126784 24.6391 6.28973 16.6888 33.0486 6.45198 20.0359 -2.06662 4.62081 22.0588 3.72922 0.0538146 1.71404 -0.424335 -28.1119 8.13991 -3.5079 21.8691 -3.59789 2.04519 7.5557 -0.151326 0.505329 -1.33162 -1.83022 -2.64739 23.4744 -9.05078 -1.09698 20.3686 10.5202 -17.8435 -2.91473 -0.481675 10.853 -36.2387 2.29656 
